Coordinates
version=1
nRows=17
nColumns=36
inDegrees=yes

Units are S.I. units (second, meters, Newtons, ...)
If the header above contains a line with 'inDegrees', this indicates whether rotational values are in degrees (yes) or radians (no).

endheader
time	pelvis_tilt	pelvis_list	pelvis_rotation	pelvis_tx	pelvis_ty	pelvis_tz	hip_flexion_r	hip_adduction_r	hip_rotation_r	knee_angle_r	knee_angle_r_beta	ankle_angle_r	subtalar_angle_r	mtp_angle_r	hip_flexion_l	hip_adduction_l	hip_rotation_l	knee_angle_l	knee_angle_l_beta	ankle_angle_l	subtalar_angle_l	mtp_angle_l	lumbar_extension	lumbar_bending	lumbar_rotation	arm_flex_r	arm_add_r	arm_rot_r	elbow_flex_r	pro_sup_r	arm_flex_l	arm_add_l	arm_rot_l	elbow_flex_l	pro_sup_l
      5.23333330	     -6.37151115	      2.14349011	      4.98594103	      1.08222953	      1.07374069	      0.04282112	      8.34570988	     -3.73362434	     -9.54932519	      0.48093420	      0.00839389	    -40.53637510	      1.21148843	     -7.49999987	     11.76506588	     -0.16725778	     -9.80968547	      0.91785071	      0.01601952	    -34.94501672	      3.23829895	     -7.49999987	     13.06255264	     -3.23574800	     13.90762497	     86.48327286	    -34.22286285	      0.60549366	    119.95966731	     90.51087124	    103.33769661	    -16.72953003	     26.87463490	    105.83074534	     89.08227384
      5.25000000	     -5.72900601	      2.34173583	      4.96361780	      1.08694653	      1.05031161	      0.04378017	      8.63590118	     -3.99531025	     -9.00419615	      0.53107599	      0.00926902	    -39.70726524	      0.90837516	     -7.49999987	     11.94805596	      0.03207992	     -8.61658263	      1.39862185	      0.02441056	    -34.62704140	      4.08765561	     -7.49999987	     13.32504653	     -2.33544667	     15.23058402	     80.55204337	    -32.35316860	     -0.51432295	    120.76233757	     90.26153894	     94.30047237	    -17.37372161	     23.80565292	    108.96330491	     89.86712165
      5.26666670	     -5.21081007	      2.54260504	      4.74188213	      1.09020006	      1.02563588	      0.04443876	      9.05853162	     -4.15508931	     -8.77418557	      0.61853187	      0.01079542	    -38.82397666	      1.04554435	     -7.49999987	     12.33745976	      0.14301174	     -7.78651551	      2.22965206	      0.03891477	    -35.05195824	      5.06541651	     -7.49999987	     12.79261574	     -1.04900249	     14.37751854	     75.15539523	    -26.85152113	     -0.87298211	    121.09109536	     90.82521486	     83.56695765	    -21.30629587	     18.88984202	    115.21602614	     89.06227995
      5.28333330	     -4.66613858	      2.76315624	      4.66355723	      1.09534073	      0.99484290	      0.04505028	      9.23948294	     -4.35916026	     -8.23916195	      0.64906456	      0.01132831	    -37.50892651	      0.99452334	     -7.49999987	     12.79215922	      0.17338590	     -6.35971973	      3.43577917	      0.05996566	    -34.99305279	      5.61343005	     -7.49999987	     12.06164607	     -0.81744267	     14.69542254	     68.40994147	    -23.77313976	     -2.92049599	    122.54880166	     86.55984549	     73.31296258	    -21.79803090	     15.00145188	    119.61456233	     84.89946315
      5.30000000	     -4.12917963	      2.60653395	      4.46462348	      1.10087931	      0.96396577	      0.04547380	      9.01284128	     -3.73173378	     -8.00724460	      1.09434756	      0.01909997	    -33.75659211	     -0.96153698	     -7.49999987	     13.13201122	     -0.00114270	     -4.87458838	      4.82306165	      0.08417831	    -32.80275081	      5.60935876	     -7.49999987	     10.50055312	      1.64971804	      9.25605237	     66.08295067	    -13.99317561	      2.28936128	    118.71991849	     86.60960652	     56.47454718	    -29.49960399	      2.69835462	    129.85603536	     82.79648434
      5.31666670	     -3.56153600	      2.24036960	      4.73906233	      1.10472813	      0.93352996	      0.04695007	      9.43172627	     -3.24105619	     -6.17138611	      4.42151214	      0.07716994	    -27.05278821	     -5.35501343	     -7.49999987	     14.23752179	     -0.53523485	     -2.61905378	      9.33491494	      0.16292500	    -26.09610635	      3.65451251	     -7.49999987	      8.39862167	      2.59587285	      4.54331374	     61.67852312	     -7.82476070	      3.98998012	    116.56060447	     87.73343438	     40.48112885	    -32.23865122	     -8.76970274	    137.74253847	     81.22041032
      5.33333330	     -2.75832038	      1.80673715	      5.00630962	      1.10550039	      0.90555346	      0.04535104	     10.90958554	     -2.88026491	     -3.96523210	     10.73012607	      0.18727603	    -17.05029187	    -10.53180000	     -7.49999987	     16.81983096	     -1.04213371	      0.00467868	     17.13229236	      0.29901491	    -17.50031641	     -0.38442055	     -7.49999987	      6.05219201	      2.42484686	      1.06508663	     55.95558077	     -4.43818925	      3.09950730	    114.99817710	     87.97159810	     27.33295438	    -30.44080130	    -16.60878138	    143.08663638	     80.90592685
      5.35000000	     -2.01489470	      1.39886216	      4.99715087	      1.10878978	      0.87115956	      0.04693605	     13.86614692	     -2.22435900	     -2.53205777	     19.97100884	      0.34855986	     -4.14914569	    -15.77104715	     -7.49999987	     20.56975830	     -1.62728812	      1.47663055	     27.15529748	      0.47394935	     -6.11469395	     -3.64563972	     -7.49999987	      4.11860962	      1.63328849	     -0.31554522	     49.40685752	     -3.11494118	      0.26882159	    113.76263424	     88.62718349	     21.33833813	    -27.69470810	    -16.75144467	    144.25662993	     84.01942867
      5.36666670	     -1.60593750	      1.35859684	      4.88465391	      1.10981864	      0.85355082	      0.04613424	     17.34718837	     -1.95943965	     -2.00571149	     29.20959751	      0.50980365	      9.08315702	    -18.32381492	     -7.49999987	     24.90861403	     -1.95454841	      2.20180408	     37.08815798	      0.64731047	      4.22287592	     -5.38639865	     -7.49999987	      2.29974623	      0.48779435	     -1.33276454	     42.35719830	     -2.02118656	     -2.11859396	    112.06038707	     86.82667274	     12.94482477	    -24.07590753	    -17.36032931	    144.66841031	     85.87015182
      5.38333330	     -1.21700560	      1.18827459	      4.82371690	      1.10802983	      0.83647731	      0.04426397	     20.84973040	     -1.69913704	     -1.62712962	     37.93183487	      0.66203541	     20.01717951	    -17.61824011	     -7.49999987	     28.41741825	     -2.21438102	      2.58686380	     45.16274446	      0.78823859	     13.26923610	     -5.78454950	     -7.49999987	      0.42978025	     -0.47600429	     -1.21148753	     34.84888764	     -1.50911583	     -4.67214579	    109.34353821	     81.23728773	      4.56869674	    -19.43971872	    -16.04200105	    141.20091542	     81.21274657
      5.40000000	     -0.78913504	      1.28345265	      4.88709558	      1.10700164	      0.82426892	      0.04624284	     23.73070065	     -1.99211823	     -2.24012521	     45.06622341	      0.78655398	     27.73299069	    -16.01362599	     -7.49999987	     30.45203827	     -2.15623767	      3.31093243	     50.58669143	      0.88290432	     20.78463384	     -4.86228668	     -7.49999987	     -0.88031476	     -1.17230505	     -0.51800107	     27.34604313	     -0.89705135	     -6.98961428	    102.90416015	     86.43137353	     -4.54722017	    -14.10668189	    -16.68404979	    128.96470451	     90.56683558
      5.41666670	     -0.79220542	      1.29759250	      4.88686688	      1.11198142	      0.80836305	      0.04822568	     26.38416120	     -2.18532683	     -2.68202872	     51.57710484	      0.90019030	     32.27860606	    -11.90482279	     -7.49999987	     32.29833985	     -2.03432901	      3.95559124	     54.94205170	      0.95891970	     26.76198374	     -4.01120859	     -7.49999987	     -1.48462818	     -1.18278682	     -0.38866156	     20.00742294	      0.12427845	     -9.13643850	     95.50074240	     86.42380474	    -10.98452497	    -12.03242824	    -15.87169909	    109.09462051	     89.91922777
      5.43333330	     -0.73927717	      1.17302609	      4.98618067	      1.11415791	      0.80460364	      0.05216517	     27.48404829	     -2.17927493	     -3.22721727	     54.72002457	      0.95504460	     34.77023291	     -9.49640346	     -7.49999987	     32.71065557	     -1.98905226	      5.03093380	     56.96749927	      0.99427043	     30.49625324	     -3.28814695	     -7.49999987	     -2.08138230	     -0.48133069	     -1.62855967	     14.27036522	      1.49893704	     -9.16966706	     83.90008365	     86.80734214	    -14.06152249	     -9.23805733	    -18.14638452	     82.09508692	     89.64941684
      5.45000000	     -1.18532220	      1.12327487	      5.02706454	      1.11285998	      0.79775012	      0.04777651	     28.97448953	     -2.52989937	     -3.60305125	     57.04237246	      0.99557721	     35.69215105	     -7.85341510	     -7.49999987	     33.58645620	     -1.57419608	      5.94846311	     58.27371232	      1.01706815	     32.26200595	     -3.06179222	     -7.49999987	     -1.77085680	     -0.34761613	     -2.15716368	     10.61868867	      1.11657822	     -6.98865696	     67.49970507	     88.37752549	    -12.02393692	     -7.81950566	    -18.72625665	     57.70694112	     88.94075895
      5.46666670	     -0.77689170	      1.39344803	      4.91049342	      1.11211605	      0.80925192	      0.04374683	     28.27296256	     -2.93276234	     -3.51369419	     56.41453308	      0.98461935	     35.03197376	     -7.75904178	     -7.49999987	     32.53427075	     -0.99683059	      6.16101690	     57.47231040	      1.00308105	     32.24966889	     -2.67631977	     -7.49999987	     -2.38248534	     -1.12868577	     -1.23066685	      8.39767333	     -0.12019638	     -5.04221459	     47.86354725	     95.07290314	     -4.80541572	     -8.00496896	    -18.58562193	     34.41175204	     93.47376100
      5.48333330	      0.06976071	      1.23581723	      5.12614648	      1.10440826	      0.81671082	      0.05603246	     26.81004193	     -2.32738844	     -3.99511556	     54.36518149	      0.94885142	     34.29413714	     -8.56233756	     -7.49999987	     31.13672829	     -1.56476369	      6.29133769	     55.69877891	      0.97212708	     30.45077276	     -2.69048925	     -7.49999987	     -4.32187953	     -1.85776520	      0.25966699	      7.83696008	     -0.69362208	     -3.88771285	     30.25366368	    100.07901720	     -3.07938240	     -7.51393314	     -9.02718504	     18.20386586	     94.88685707
      5.50000000	      0.06946927	      1.09487265	      5.49840132	      1.12044209	      0.80614309	      0.04433895	     25.84458335	     -2.93000221	     -4.57797578	     53.65069376	      0.93638125	     34.17266189	     -8.05537529	     -7.49999987	     30.70237500	     -1.66126189	      5.97180503	     55.45829242	      0.96792980	     30.73135175	     -1.92113894	     -7.49999987	     -3.90597321	     -1.62567115	     -0.01929770	      4.75028626	     -1.92130896	     -5.33759152	     19.71341829	    101.46810250	     -6.33233914	     -5.47845439	     -7.42943084	     12.10138403	     96.34587146
